<svg width="28" height="26" viewBox="0 0 28 26" fill="none" xmlns="http://www.w3.org/2000/svg">
<path d="M6.97789 6.84731C7.03472 6.88027 7.0975 6.90169 7.16262 6.91033C7.22775 6.91897 7.29394 6.91466 7.3574 6.89766C7.42086 6.88066 7.48033 6.85129 7.53241 6.81125C7.58449 6.7712 7.62816 6.72127 7.66089 6.66431L10.8434 1.15131C10.9087 1.03653 10.9259 0.900599 10.8913 0.773178C10.8567 0.645756 10.7731 0.537191 10.6587 0.471173C10.5444 0.405154 10.4086 0.387043 10.2809 0.420791C10.1533 0.454539 10.0442 0.537406 9.97739 0.65131L6.79489 6.16431C6.76193 6.22114 6.74051 6.28392 6.73187 6.34904C6.72323 6.41417 6.72754 6.48036 6.74454 6.54382C6.76154 6.60727 6.79091 6.66675 6.83095 6.71883C6.871 6.77091 6.92093 6.81457 6.97789 6.84731ZM20.3359 6.66431C20.3685 6.72163 20.4121 6.77194 20.4642 6.81234C20.5163 6.85274 20.5759 6.88244 20.6395 6.89971C20.7032 6.91699 20.7696 6.92151 20.835 6.91301C20.9004 6.90451 20.9634 6.88316 21.0206 6.85019C21.0777 6.81722 21.1277 6.77328 21.1677 6.7209C21.2078 6.66852 21.2371 6.60873 21.2539 6.54498C21.2708 6.48123 21.2749 6.41478 21.2659 6.34945C21.257 6.28412 21.2352 6.22119 21.2019 6.16431L18.0194 0.65131C17.9868 0.593987 17.9432 0.543677 17.8911 0.503276C17.839 0.462875 17.7794 0.433182 17.7157 0.415905C17.6521 0.398628 17.5857 0.394109 17.5203 0.402608C17.4549 0.411108 17.3918 0.432457 17.3347 0.465428C17.2776 0.498399 17.2276 0.542339 17.1875 0.59472C17.1475 0.647101 17.1182 0.706887 17.1013 0.770637C17.0845 0.834386 17.0804 0.90084 17.0893 0.966172C17.0983 1.0315 17.12 1.09442 17.1534 1.15131L20.3359 6.66431ZM9.18839 20.3573C9.321 20.3573 9.44818 20.3046 9.54194 20.2109C9.63571 20.1171 9.68839 19.9899 9.68839 19.8573V15.0468C9.68839 14.9142 9.63571 14.787 9.54194 14.6933C9.44818 14.5995 9.321 14.5468 9.18839 14.5468C9.05578 14.5468 8.92861 14.5995 8.83484 14.6933C8.74107 14.787 8.68839 14.9142 8.68839 15.0468V19.8573C8.68839 19.9899 8.74107 20.1171 8.83484 20.2109C8.92861 20.3046 9.05578 20.3573 9.18839 20.3573ZM13.9984 20.3573C14.131 20.3573 14.2582 20.3046 14.3519 20.2109C14.4457 20.1171 14.4984 19.9899 14.4984 19.8573V15.0468C14.4984 14.9142 14.4457 14.787 14.3519 14.6933C14.2582 14.5995 14.131 14.5468 13.9984 14.5468C13.8658 14.5468 13.7386 14.5995 13.6448 14.6933C13.5511 14.787 13.4984 14.9142 13.4984 15.0468V19.8573C13.4984 19.9899 13.5511 20.1171 13.6448 20.2109C13.7386 20.3046 13.8658 20.3573 13.9984 20.3573ZM18.8084 20.3573C18.941 20.3573 19.0682 20.3046 19.1619 20.2109C19.2557 20.1171 19.3084 19.9899 19.3084 19.8573V15.0468C19.3084 14.9142 19.2557 14.787 19.1619 14.6933C19.0682 14.5995 18.941 14.5468 18.8084 14.5468C18.6758 14.5468 18.5486 14.5995 18.4548 14.6933C18.3611 14.787 18.3084 14.9142 18.3084 15.0468V19.8573C18.3084 19.9899 18.3611 20.1171 18.4548 20.2109C18.5486 20.3046 18.6758 20.3573 18.8084 20.3573Z" fill="white"/>
<path d="M27.391 8.40738C27.2771 8.29277 27.1416 8.2019 26.9924 8.14001C26.8431 8.07813 26.6831 8.04648 26.5215 8.04688H1.48048C1.31914 8.0464 1.1593 8.07792 1.01022 8.13963C0.86114 8.20134 0.725783 8.292 0.611982 8.40638C0.497163 8.52034 0.406125 8.65598 0.344154 8.80541C0.282182 8.95485 0.250512 9.11511 0.250982 9.27688V10.8179C0.250982 11.1469 0.379482 11.4559 0.611482 11.6874C0.843482 11.9194 1.15248 12.0474 1.48048 12.0474H2.29998L4.13598 23.0624C4.25208 23.7714 4.61693 24.4159 5.16512 24.8804C5.71331 25.3448 6.409 25.5988 7.12748 25.5969H20.8735C21.592 25.5988 22.2877 25.3448 22.8358 24.8804C23.384 24.4159 23.7489 23.7714 23.865 23.0624L25.701 12.0474H26.5205C26.8485 12.0474 27.1575 11.9194 27.389 11.6879C27.5038 11.574 27.5948 11.4384 27.6568 11.2891C27.7187 11.1397 27.7504 10.9796 27.75 10.8179V9.27688C27.7509 9.11537 27.7196 8.95529 27.658 8.80599C27.5964 8.6567 27.5056 8.52119 27.391 8.40738ZM22.8795 22.8974C22.8016 23.3727 22.557 23.8048 22.1895 24.1161C21.822 24.4275 21.3556 24.5977 20.874 24.5964H7.12798C6.64632 24.5977 6.17994 24.4275 5.81243 24.1161C5.44492 23.8048 5.20032 23.3727 5.12248 22.8974L3.31398 12.0469H24.6885L22.8795 22.8974ZM26.751 10.8174C26.751 10.8475 26.7452 10.8774 26.7336 10.9053C26.7221 10.9332 26.7052 10.9585 26.6839 10.9798C26.6626 11.0011 26.6373 11.018 26.6094 11.0295C26.5815 11.0411 26.5516 11.0469 26.5215 11.0469H1.48048C1.41966 11.0467 1.36136 11.0225 1.31835 10.9795C1.27534 10.9365 1.25111 10.8782 1.25098 10.8174V9.27638C1.25111 9.21555 1.27534 9.15726 1.31835 9.11425C1.36136 9.07123 1.41966 9.04701 1.48048 9.04688H26.5215C26.5822 9.04727 26.6404 9.07158 26.6833 9.11453C26.7263 9.15749 26.7506 9.21563 26.751 9.27638V10.8174Z" fill="white"/>
</svg>
